PathFileType	4	(X/Y/Z)	C:\Users\Basilio\Documents\Thesis Gigler\squatting_fais\c3dfiles\054\SJ_pre2\markers_experimental.trc
DataRate	CameraRate	NumFrames	NumMarkers	Units	OrigDataRate	OrigDataStartFrame	OrigNumFrames
200.000000	200.000000	4	61	mm	200.000000	785	2095
Frame#	Time	FHD			LBHD			RBHD			C7			T10			CLAV			LSHO			LUUPA			LMUPA			LDUPA			LLEP			LMEP			LRAD			LUL			LRFIN			RSHO			RUPA1			RMUPA			RDUPA			RLEP			RMEP			RRAD			RUL			RUFIN			LASI			RASI			USACR			LSACR			RSACR			LTHI1			LTHI2			LTHI3			LTHI4			LLFC			LMFC			LTIB1			LTIB2			LTIB3			LTIB4			LLMAL			LMMAL			LHEE			LMT1			LMT2			LMT5			RTHI			RTHI2			RTHI3			RTHI4			RLFC			RMFC			RTIB1			RTIB2			RTIB3			RTIB4			RLMAL			RMMAL			RHEE			RMT1			RMT2			RMT5			
		X1	Y1	Z1	X2	Y2	Z2	X3	Y3	Z3	X4	Y4	Z4	X5	Y5	Z5	X6	Y6	Z6	X7	Y7	Z7	X8	Y8	Z8	X9	Y9	Z9	X10	Y10	Z10	X11	Y11	Z11	X12	Y12	Z12	X13	Y13	Z13	X14	Y14	Z14	X15	Y15	Z15	X16	Y16	Z16	X17	Y17	Z17	X18	Y18	Z18	X19	Y19	Z19	X20	Y20	Z20	X21	Y21	Z21	X22	Y22	Z22	X23	Y23	Z23	X24	Y24	Z24	X25	Y25	Z25	X26	Y26	Z26	X27	Y27	Z27	X28	Y28	Z28	X29	Y29	Z29	X30	Y30	Z30	X31	Y31	Z31	X32	Y32	Z32	X33	Y33	Z33	X34	Y34	Z34	X35	Y35	Z35	X36	Y36	Z36	X37	Y37	Z37	X38	Y38	Z38	X39	Y39	Z39	X40	Y40	Z40	X41	Y41	Z41	X42	Y42	Z42	X43	Y43	Z43	X44	Y44	Z44	X45	Y45	Z45	X46	Y46	Z46	X47	Y47	Z47	X48	Y48	Z48	X49	Y49	Z49	X50	Y50	Z50	X51	Y51	Z51	X52	Y52	Z52	X53	Y53	Z53	X54	Y54	Z54	X55	Y55	Z55	X56	Y56	Z56	X57	Y57	Z57	X58	Y58	Z58	X59	Y59	Z59	X60	Y60	Z60	X61	Y61	Z61	

786	3.925	-194.8584442138672	1760.396484375	-894.0259399414065	-334.9582824707032	1668.439086914063	-970.4831542968752	-355.7019348144532	1660.295654296875	-832.3211669921877	-361.9360046386719	1527.466064453125	-888.817565917969	-429.1472778320314	1195.033203125	-897.4476318359377	-226.8691864013672	1451.381713867188	-897.220153808594	-281.4661254882813	1517.57275390625	-1054.570434570313	-394.4589843750001	1404.728881835938	-1227.349609375	-360.0155944824219	1363.950805664063	-1236.126586914063	-410.0704345703126	1352.080688476563	-1270.6162109375	-413.8434143066407	1288.417724609375	-1293.103881835938	-487.782684326172	1279.150390625	-1243.237548828125	-398.5293884277345	1077.653198242188	-1134.669311523438	-361.8684082031251	1036.977416992188	-1188.525390625	-337.6232299804688	1082.09814453125	-1103.126831054688	-265.7543945312501	1509.903686523438	-730.0946044921876	-382.0160217285157	1373.262329101563	-565.4304809570314	-360.7069091796876	1329.166015625	-562.5714721679689	-413.1431274414064	1318.520629882813	-533.8571777343751	-428.1293945312501	1270.688720703125	-521.0949096679689	-489.9966125488282	1270.444091796875	-581.6273803710939	-404.2504882812501	1056.128784179688	-692.4288330078126	-337.6204223632813	1070.392944335938	-710.1817626953126	-365.3839416503907	1025.252807617188	-628.8673095703126	-258.2031250000001	1009.847412109375	-1030.78662109375	-248.6091003417969	1006.812255859375	-775.351745605469	-436.8710021972657	1100.854858398438	-896.1596679687502	-444.0720825195314	1069.369506835938	-923.644226074219	-440.6703491210939	1067.87158203125	-867.5378417968752	-381.0319519042969	798.970886230469	-1142.611083984375	-348.8644714355469	722.3055419921876	-1163.589599609375	-302.5811767578126	728.5955810546876	-1167.0419921875	-374.0885620117188	666.9116210937501	-1152.507690429688	-363.1906127929688	511.5379943847657	-1163.681518554688	-296.2276306152344	480.5548706054689	-1050.620971679688	-317.7665710449219	342.2993469238282	-1167.314331054688	-384.8862304687501	309.9244689941407	-1215.770263671875	-341.9960021972657	301.4000549316407	-1204.940673828125	-340.8565063476563	219.1090393066407	-1186.484741210938	-415.0138244628907	89.0558319091797	-1240.171997070313	-362.7296752929688	100.1006317138672	-1157.140380859375	-467.7803649902345	50.50244903564455	-1175.9384765625	-249.6436004638672	57.64252090454103	-1207.543701171875	-254.1873474121094	63.89360809326173	-1256.947021484375	-311.4436035156251	39.11277389526368	-1298.035034179688	-368.6012573242188	729.6090087890626	-676.4180297851564	-335.2305908203126	674.0679931640626	-666.5017089843751	-302.8140563964844	673.3754272460939	-667.4670410156251	-365.8071899414063	596.0281372070314	-678.5519409179689	-379.3140258789063	503.1024169921876	-670.8929443359376	-308.1796569824219	487.006072998047	-786.209167480469	-335.0664367675782	393.4751586914064	-648.1634521484376	-416.1201171875001	329.7082824707032	-619.9696044921876	-370.7831726074219	319.0324401855469	-619.3634643554689	-354.8679504394532	264.9713134765626	-632.3604125976564	-427.9534912109376	92.73558807373048	-595.6755981445314	-372.0086975097657	98.91880798339847	-673.8811645507814	-475.0744018554689	47.62030029296876	-660.7212524414064	-250.848373413086	53.28601074218751	-617.7279052734376	-262.4626770019532	55.33460235595705	-571.2996826171876	-319.7599487304688	33.1316261291504	-533.4132080078126	
787	3.93	-194.7156677246094	1760.36181640625	-893.7903442382815	-334.6000366210938	1668.336669921875	-970.3046875000002	-355.5279846191407	1660.1591796875	-832.1084594726565	-361.5885009765626	1527.508056640625	-888.8723754882815	-429.4014587402345	1195.217041015625	-898.117858886719	-226.7062530517579	1451.175903320313	-897.1292114257815	-280.9378051757813	1517.596923828125	-1054.552001953125	-393.5322265625001	1404.977172851563	-1227.614501953125	-358.9535217285157	1364.309692382813	-1236.44580078125	-408.8547668457032	1352.243408203125	-1271.077270507813	-412.9315795898439	1288.77001953125	-1293.496704101563	-487.1049804687501	1279.652587890625	-1243.967651367188	-398.3843078613282	1077.852294921875	-1135.322265625	-361.5669555664063	1037.11767578125	-1189.042114257813	-337.6574401855469	1082.18701171875	-1103.518432617188	-265.7662353515626	1509.629272460938	-729.9818725585939	-382.3625488281251	1372.990234375	-565.6947631835939	-361.0892639160157	1328.833251953125	-562.9572143554689	-413.8016052246095	1318.1669921875	-534.1187744140626	-428.882537841797	1270.44482421875	-521.4136962890626	-490.5285034179689	1270.215087890625	-582.0306396484376	-404.989959716797	1056.006958007813	-692.8933105468751	-338.1241760253907	1070.448974609375	-710.8065185546876	-366.3432922363282	1024.969482421875	-629.4398803710939	-258.6173095703126	1009.634521484375	-1030.969360351563	-249.312240600586	1006.533447265625	-775.724548339844	-437.2958068847657	1101.145874023438	-896.592712402344	-444.6035461425782	1069.607421875	-924.250671386719	-441.2275695800782	1068.101196289063	-868.336364746094	-381.1125793457032	798.806823730469	-1143.160766601563	-348.7978210449219	722.2796020507814	-1164.1298828125	-302.6364746093751	728.5608520507814	-1167.585205078125	-374.0914916992188	666.9426879882814	-1153.103393554688	-362.7925415039063	511.4878234863282	-1164.512939453125	-295.8082275390626	480.6106262207032	-1051.402465820313	-317.4432983398438	342.1388854980469	-1167.845825195313	-384.7618103027345	309.8099670410157	-1216.310302734375	-341.7586975097657	301.3753051757813	-1205.369750976563	-340.7548828125001	219.0178680419922	-1186.808471679688	-414.8345031738282	89.04559326171876	-1240.21728515625	-362.6316833496094	100.0650939941407	-1157.158447265625	-467.6930236816407	50.56208419799806	-1175.8837890625	-249.6417541503907	57.45516204833986	-1207.699829101563	-254.1339569091797	63.76119232177736	-1257.126831054688	-311.5815124511719	38.91626358032227	-1298.15576171875	-369.0141906738282	729.4204711914064	-676.7376098632814	-335.4602661132813	674.0500488281251	-666.6049194335939	-303.2085876464844	673.6045532226564	-667.3811645507814	-365.7465820312501	595.9338378906251	-678.5568237304689	-379.0839843750001	503.0483703613282	-670.8139038085939	-307.2801818847657	486.967742919922	-785.8605957031252	-334.7208557128907	393.3974914550782	-647.8447875976564	-416.034881591797	329.6434936523438	-620.1649780273439	-370.6747741699219	318.9845886230469	-619.2341918945314	-354.7462463378907	264.9116821289063	-632.0607910156251	-427.9534912109376	92.74533843994142	-595.7045288085939	-371.9438171386719	98.91229248046878	-673.9354248046876	-475.084197998047	47.60150146484376	-660.7558593750001	-250.8836975097657	53.30089569091798	-617.7163085937501	-262.4890136718751	55.36066818237306	-571.2833862304689	-319.7201232910157	33.18742370605469	-533.4367065429689	
788	3.935	-194.5569915771485	1760.362426757813	-893.5782470703127	-334.4754028320313	1668.20751953125	-970.1216430664065	-355.2402648925782	1659.920532226563	-831.8733520507815	-361.3788146972657	1527.565673828125	-888.9383544921877	-429.5462036132814	1195.287231445313	-898.6443481445315	-226.6041412353516	1451.058227539063	-897.0301513671877	-280.4155883789063	1517.655517578125	-1054.577758789063	-392.7782592773439	1405.292602539063	-1227.96728515625	-358.1484375000001	1364.484497070313	-1236.847778320313	-407.6486206054689	1352.4169921875	-1271.464233398438	-411.9169006347657	1289.038208007813	-1293.982177734375	-486.3597106933595	1280.073486328125	-1244.662475585938	-397.785858154297	1077.940551757813	-1135.96728515625	-361.3646240234376	1037.234375	-1189.55859375	-337.7083435058594	1082.245971679688	-1103.894287109375	-265.8434143066407	1509.460327148438	-729.7239379882814	-382.8694458007813	1372.663940429688	-565.8955688476564	-361.8327941894532	1328.286865234375	-563.0893554687501	-414.4266357421876	1317.858764648438	-534.3912353515626	-429.5474853515626	1270.204345703125	-521.7421875000001	-491.2174072265626	1270.055541992188	-582.6917724609376	-405.6226501464845	1055.913452148438	-693.5504760742189	-338.7120666503907	1070.397094726563	-711.2681274414064	-367.1992492675782	1024.852661132813	-630.0324096679689	-258.9887084960938	1009.472412109375	-1031.258544921875	-249.9128417968751	1006.474792480469	-776.2905273437502	-437.5051574707032	1101.318359375	-897.2752685546877	-444.9836425781251	1069.8125	-924.8725585937502	-441.7296447753907	1068.296264648438	-868.858825683594	-381.1999816894532	798.595397949219	-1143.65771484375	-348.7423706054688	722.1770019531251	-1164.6376953125	-302.6242675781251	728.6166992187501	-1168.184204101563	-374.0609741210938	666.7850952148439	-1153.610595703125	-362.3226623535157	511.3552246093751	-1165.227783203125	-295.1611633300782	480.6659545898439	-1052.159545898438	-316.9873657226563	342.0763854980469	-1168.423828125	-384.6869201660157	309.7433471679688	-1216.708862304688	-341.4947814941407	301.2766418457032	-1205.712280273438	-340.2511596679688	219.0338439941407	-1187.207153320313	-414.6254272460939	89.02861785888673	-1240.203002929688	-362.4375915527344	100.0500640869141	-1157.245239257813	-467.6499938964845	50.6020965576172	-1175.819091796875	-249.3760986328126	57.13576507568361	-1207.873779296875	-254.0996551513672	63.45710372924806	-1257.230712890625	-311.4987487792969	38.76606369018555	-1298.307373046875	-369.5114746093751	729.2521362304689	-677.1150512695314	-335.8011474609376	674.0432128906251	-666.6304931640626	-303.4024353027344	673.6538696289064	-667.3843994140626	-365.7002563476563	595.7129516601564	-678.5839233398439	-378.4457397460938	502.9168090820314	-670.7774047851564	-306.5188903808594	486.9934387207032	-785.4794921875002	-334.3718566894532	393.340301513672	-647.5414428710939	-415.8848876953126	329.6198730468751	-620.0986328125001	-370.4755554199219	318.9202270507813	-619.0481567382814	-354.4785766601563	264.8456420898438	-631.9908447265626	-427.873504638672	92.76753997802736	-595.7293090820314	-371.8893432617188	98.87049865722659	-673.9732055664064	-475.0760498046876	47.59299087524415	-660.7772827148439	-250.8948822021485	53.27696609497072	-617.7113037109376	-262.4847106933594	55.34907150268556	-571.3040161132814	-319.6873779296876	33.2161979675293	-533.4553222656251	
789	3.94	-194.4912719726563	1760.317260742188	-893.3521118164065	-334.2820129394532	1668.091796875	-970.004821777344	-355.0383911132813	1659.760009765625	-831.6816406250002	-361.0396423339844	1527.594482421875	-889.0662841796877	-429.6768188476564	1195.462280273438	-899.2485961914065	-226.5228271484376	1450.919311523438	-896.9275512695315	-279.7911682128907	1517.679443359375	-1054.570922851563	-391.6444091796876	1405.505004882813	-1228.205810546875	-359.0825805664063	1364.031005859375	-1235.9599609375	-407.4215087890626	1352.903076171875	-1271.705444335938	-411.0649719238282	1289.323364257813	-1294.430786132813	-485.534149169922	1280.385864257813	-1245.408081054688	-397.6229553222657	1078.1337890625	-1136.4248046875	-361.2736816406251	1037.341064453125	-1190.027709960938	-337.5402832031251	1082.287353515625	-1104.279541015625	-265.7630004882813	1509.04833984375	-729.7617797851564	-383.2774963378907	1372.323852539063	-566.0681762695314	-362.6342773437501	1328.0595703125	-563.2605590820314	-415.013397216797	1317.531005859375	-534.7413330078126	-430.2031860351564	1269.88037109375	-522.2084960937501	-491.7714233398439	1270.000610351563	-583.1726074218751	-406.3884887695314	1055.792846679688	-694.1598510742189	-339.4420471191407	1070.158325195313	-711.7266845703126	-367.7807922363282	1024.763427734375	-630.7649536132814	-259.4148254394532	1009.228820800781	-1031.503784179688	-250.6468963623047	1006.312194824219	-776.648620605469	-437.882781982422	1101.4580078125	-897.9131469726565	-445.4265747070314	1070.08154296875	-925.5698852539065	-442.2369995117189	1068.527221679688	-869.4482421875002	-381.2494812011719	798.4913330078127	-1144.0986328125	-348.6834716796876	722.0078735351564	-1165.264282226563	-302.6122436523438	728.5645751953126	-1168.716674804688	-373.8520812988282	666.6551513671876	-1154.224731445313	-361.8456420898438	511.3200073242189	-1165.970581054688	-294.8549804687501	480.5677185058595	-1052.803100585938	-316.5143432617188	342.0036315917969	-1169.024047851563	-384.2845764160157	309.6310424804688	-1217.10302734375	-341.1495971679688	301.1392211914063	-1206.111572265625	-339.7848510742188	218.9281311035157	-1187.584228515625	-414.5889282226564	89.0455780029297	-1240.201049804688	-362.1306152343751	100.0191421508789	-1157.225708007813	-467.599334716797	50.657772064209	-1175.8154296875	-249.2649536132813	56.81174850463869	-1207.958129882813	-254.0588836669922	63.23087692260744	-1257.34375	-311.4403991699219	38.58386230468751	-1298.468017578125	-370.0930175781251	729.2026367187501	-677.4362182617189	-336.0712585449219	674.0375976562501	-666.7898559570314	-303.7027282714844	673.8300170898439	-667.3742065429689	-365.6697692871094	595.5258789062501	-678.5748291015626	-377.9320678710938	502.8746337890626	-670.7329711914064	-305.8388366699219	486.951141357422	-785.1987915039065	-334.0918579101563	393.2713317871095	-647.2534790039064	-415.5691528320314	329.5687866210938	-620.0912475585939	-370.3132934570313	318.8381347656251	-618.9202880859376	-354.2327575683594	264.8542785644532	-631.8480224609376	-427.8742675781251	92.75926971435548	-595.7456054687501	-371.8564758300782	98.84271240234378	-674.0440673828126	-475.0757141113282	47.59677886962891	-660.7653808593751	-250.8886871337891	53.28646087646486	-617.7148437500001	-262.4647216796876	55.44210052490236	-571.3136596679689	-319.6800537109376	33.26668167114259	-533.4711303710939	
